<?xml version="1.0" encoding="UTF-8" standalone="no"?>
<!DOCTYPE svg PUBLIC "-//W3C//DTD SVG 1.1//EN"
 "http://www.w3.org/Graphics/SVG/1.1/DTD/svg11.dtd">
<!-- Generated by graphviz version 2.36.0 (20140111.2315)
 -->
<!-- Title: G Pages: 1 -->
<svg width="4218pt" height="425pt"
 viewBox="0.00 0.00 4218.00 425.00" xmlns="http://www.w3.org/2000/svg" xmlns:xlink="http://www.w3.org/1999/xlink">
<g id="graph0" class="graph" transform="scale(1 1) rotate(0) translate(4 421)">
<title>G</title>
<polygon fill="white" stroke="none" points="-4,4 -4,-421 4214,-421 4214,4 -4,4"/>
<text text-anchor="middle" x="34" y="-401.8" font-family="Times,serif" font-size="14.00">fuji_open</text>
<!-- alloc_kernel_buf -->
<g id="node1" class="node"><title>alloc_kernel_buf</title>
<ellipse fill="none" stroke="black" cx="501" cy="-157" rx="64.1938" ry="64.1938"/>
<text text-anchor="middle" x="501" y="-160.8" font-family="Times,serif" font-size="14.00">alloc fw</text>
<text text-anchor="middle" x="501" y="-145.8" font-family="Times,serif" font-size="14.00"> kernel buffer</text>
</g>
<!-- cp_usr_to_kernel -->
<g id="node19" class="node"><title>cp_usr_to_kernel</title>
<ellipse fill="none" stroke="black" cx="681" cy="-221" rx="77.1494" ry="77.1494"/>
<text text-anchor="middle" x="681" y="-224.8" font-family="Times,serif" font-size="14.00">Copy user buffer</text>
<text text-anchor="middle" x="681" y="-209.8" font-family="Times,serif" font-size="14.00"> to kernel buf</text>
</g>
<!-- alloc_kernel_buf&#45;&gt;cp_usr_to_kernel -->
<g id="edge26" class="edge"><title>alloc_kernel_buf&#45;&gt;cp_usr_to_kernel</title>
<path fill="none" stroke="black" d="M561.767,-178.489C573.678,-182.772 586.375,-187.337 598.865,-191.828"/>
<polygon fill="black" stroke="black" points="597.764,-195.151 608.358,-195.241 600.132,-188.564 597.764,-195.151"/>
</g>
<!-- release_user_buf -->
<g id="node21" class="node"><title>release_user_buf</title>
<ellipse fill="none" stroke="black" cx="4081" cy="-110" rx="54.3945" ry="54.3945"/>
<text text-anchor="middle" x="4081" y="-113.8" font-family="Times,serif" font-size="14.00">Release fw</text>
<text text-anchor="middle" x="4081" y="-98.8" font-family="Times,serif" font-size="14.00"> user buf</text>
</g>
<!-- alloc_kernel_buf&#45;&gt;release_user_buf -->
<g id="edge30" class="edge"><title>alloc_kernel_buf&#45;&gt;release_user_buf</title>
<path fill="none" stroke="black" d="M561.164,-133.73C595.34,-122.321 639.464,-111 680,-111 680,-111 680,-111 3934,-111 3960.85,-111 3990.47,-110.829 4015.97,-110.628"/>
<polygon fill="black" stroke="black" points="4016.29,-114.126 4026.26,-110.544 4016.23,-107.126 4016.29,-114.126"/>
<text text-anchor="middle" x="2225" y="-114.8" font-family="Times,serif" font-size="14.00">Alloc kernel buf fail</text>
</g>
<!-- set_flash_erase_addr -->
<g id="node2" class="node"><title>set_flash_erase_addr</title>
<ellipse fill="none" stroke="black" cx="994" cy="-236" rx="71.3357" ry="71.3357"/>
<text text-anchor="middle" x="994" y="-239.8" font-family="Times,serif" font-size="14.00">set isp flash</text>
<text text-anchor="middle" x="994" y="-224.8" font-family="Times,serif" font-size="14.00"> erase addr to 0</text>
</g>
<!-- flash_erase -->
<g id="node3" class="node"><title>flash_erase</title>
<ellipse fill="none" stroke="black" cx="1152" cy="-236" rx="48.1917" ry="48.1917"/>
<text text-anchor="middle" x="1152" y="-232.3" font-family="Times,serif" font-size="14.00">flash erase</text>
</g>
<!-- set_flash_erase_addr&#45;&gt;flash_erase -->
<g id="edge1" class="edge"><title>set_flash_erase_addr&#45;&gt;flash_erase</title>
<path fill="none" stroke="black" d="M1065.7,-236C1075.07,-236 1084.58,-236 1093.69,-236"/>
<polygon fill="black" stroke="black" points="1093.77,-239.5 1103.77,-236 1093.77,-232.5 1093.77,-239.5"/>
</g>
<!-- flash_erase&#45;&gt;flash_erase -->
<g id="edge9" class="edge"><title>flash_erase&#45;&gt;flash_erase</title>
<path fill="none" stroke="black" d="M1139.84,-282.564C1140.79,-293.728 1144.85,-302 1152,-302 1156.81,-302 1160.21,-298.266 1162.22,-292.429"/>
<polygon fill="black" stroke="black" points="1165.66,-293.051 1164.16,-282.564 1158.8,-291.702 1165.66,-293.051"/>
<text text-anchor="middle" x="1152" y="-320.8" font-family="Times,serif" font-size="14.00">wait for</text>
<text text-anchor="middle" x="1152" y="-305.8" font-family="Times,serif" font-size="14.00"> erase complete</text>
</g>
<!-- pll_set -->
<g id="node4" class="node"><title>pll_set</title>
<ellipse fill="none" stroke="black" cx="1313" cy="-260" rx="74.9067" ry="74.9067"/>
<text text-anchor="middle" x="1313" y="-263.8" font-family="Times,serif" font-size="14.00">PLL</text>
<text text-anchor="middle" x="1313" y="-248.8" font-family="Times,serif" font-size="14.00"> set to 19.2MHz</text>
</g>
<!-- flash_erase&#45;&gt;pll_set -->
<g id="edge2" class="edge"><title>flash_erase&#45;&gt;pll_set</title>
<path fill="none" stroke="black" d="M1199.85,-243.071C1208.98,-244.45 1218.82,-245.935 1228.73,-247.431"/>
<polygon fill="black" stroke="black" points="1228.23,-250.896 1238.64,-248.928 1229.28,-243.974 1228.23,-250.896"/>
</g>
<!-- power_down -->
<g id="node11" class="node"><title>power_down</title>
<ellipse fill="none" stroke="black" cx="3637" cy="-242" rx="54.6905" ry="54.6905"/>
<text text-anchor="middle" x="3637" y="-238.3" font-family="Times,serif" font-size="14.00">power down</text>
</g>
<!-- flash_erase&#45;&gt;power_down -->
<g id="edge11" class="edge"><title>flash_erase&#45;&gt;power_down</title>
<path fill="none" stroke="black" d="M1189.7,-205.688C1204.05,-195.044 1221.11,-183.806 1238,-176 1268.82,-161.752 1278.04,-157 1312,-157 1312,-157 1312,-157 3488,-157 3525.19,-157 3561.49,-177.433 3588.83,-198.263"/>
<polygon fill="black" stroke="black" points="3587,-201.276 3597.02,-204.718 3591.33,-195.778 3587,-201.276"/>
<text text-anchor="middle" x="2382" y="-160.8" font-family="Times,serif" font-size="14.00">flash erase fail</text>
</g>
<!-- set_ram_addr -->
<g id="node5" class="node"><title>set_ram_addr</title>
<ellipse fill="none" stroke="black" cx="1493" cy="-259" rx="66.4361" ry="66.4361"/>
<text text-anchor="middle" x="1493" y="-270.3" font-family="Times,serif" font-size="14.00">set target</text>
<text text-anchor="middle" x="1493" y="-255.3" font-family="Times,serif" font-size="14.00"> RAM addr to</text>
<text text-anchor="middle" x="1493" y="-240.3" font-family="Times,serif" font-size="14.00"> 0x20000000</text>
</g>
<!-- pll_set&#45;&gt;set_ram_addr -->
<g id="edge3" class="edge"><title>pll_set&#45;&gt;set_ram_addr</title>
<path fill="none" stroke="black" d="M1388.2,-259.583C1397.52,-259.531 1407.06,-259.477 1416.39,-259.425"/>
<polygon fill="black" stroke="black" points="1416.45,-262.925 1426.43,-259.368 1416.41,-255.925 1416.45,-262.925"/>
</g>
<!-- set_ram_transfer_size -->
<g id="node6" class="node"><title>set_ram_transfer_size</title>
<ellipse fill="none" stroke="black" cx="1663" cy="-258" rx="65.1077" ry="65.1077"/>
<text text-anchor="middle" x="1663" y="-261.8" font-family="Times,serif" font-size="14.00">set RAM size</text>
<text text-anchor="middle" x="1663" y="-246.8" font-family="Times,serif" font-size="14.00"> to 2M</text>
</g>
<!-- set_ram_addr&#45;&gt;set_ram_transfer_size -->
<g id="edge4" class="edge"><title>set_ram_addr&#45;&gt;set_ram_transfer_size</title>
<path fill="none" stroke="black" d="M1559.92,-258.608C1569.1,-258.553 1578.58,-258.497 1587.9,-258.441"/>
<polygon fill="black" stroke="black" points="1587.95,-261.941 1597.92,-258.381 1587.9,-254.941 1587.95,-261.941"/>
</g>
<!-- set_DRAM -->
<g id="node7" class="node"><title>set_DRAM</title>
<ellipse fill="none" stroke="black" cx="1816" cy="-257" rx="50.0912" ry="50.0912"/>
<text text-anchor="middle" x="1816" y="-253.3" font-family="Times,serif" font-size="14.00">set DRAM</text>
</g>
<!-- set_ram_transfer_size&#45;&gt;set_DRAM -->
<g id="edge5" class="edge"><title>set_ram_transfer_size&#45;&gt;set_DRAM</title>
<path fill="none" stroke="black" d="M1728.48,-257.573C1737.46,-257.513 1746.66,-257.453 1755.55,-257.394"/>
<polygon fill="black" stroke="black" points="1755.84,-260.892 1765.81,-257.326 1755.79,-253.892 1755.84,-260.892"/>
</g>
<!-- set_SIO_mode -->
<g id="node8" class="node"><title>set_SIO_mode</title>
<ellipse fill="none" stroke="black" cx="1964" cy="-257" rx="59.5901" ry="59.5901"/>
<text text-anchor="middle" x="1964" y="-253.3" font-family="Times,serif" font-size="14.00">set SIO mode</text>
</g>
<!-- set_DRAM&#45;&gt;set_SIO_mode -->
<g id="edge6" class="edge"><title>set_DRAM&#45;&gt;set_SIO_mode</title>
<path fill="none" stroke="black" d="M1866.43,-257C1875.3,-257 1884.69,-257 1893.99,-257"/>
<polygon fill="black" stroke="black" points="1894.02,-260.5 1904.02,-257 1894.02,-253.5 1894.02,-260.5"/>
</g>
<!-- start_SIO_mode -->
<g id="node9" class="node"><title>start_SIO_mode</title>
<ellipse fill="none" stroke="black" cx="2225" cy="-257" rx="64.9885" ry="64.9885"/>
<text text-anchor="middle" x="2225" y="-253.3" font-family="Times,serif" font-size="14.00">start SIO mode</text>
</g>
<!-- set_SIO_mode&#45;&gt;start_SIO_mode -->
<g id="edge7" class="edge"><title>set_SIO_mode&#45;&gt;start_SIO_mode</title>
<path fill="none" stroke="black" d="M2024.1,-257C2061.32,-257 2109.68,-257 2149.52,-257"/>
<polygon fill="black" stroke="black" points="2149.72,-260.5 2159.72,-257 2149.72,-253.5 2149.72,-260.5"/>
</g>
<!-- pb3_pull_up -->
<g id="node10" class="node"><title>pb3_pull_up</title>
<ellipse fill="none" stroke="black" cx="2382" cy="-257" rx="53.0913" ry="53.0913"/>
<text text-anchor="middle" x="2382" y="-253.3" font-family="Times,serif" font-size="14.00">PB3 pull up</text>
</g>
<!-- start_SIO_mode&#45;&gt;pb3_pull_up -->
<g id="edge8" class="edge"><title>start_SIO_mode&#45;&gt;pb3_pull_up</title>
<path fill="none" stroke="black" d="M2290.39,-257C2299.57,-257 2309.01,-257 2318.17,-257"/>
<polygon fill="black" stroke="black" points="2318.36,-260.5 2328.36,-257 2318.36,-253.5 2318.36,-260.5"/>
</g>
<!-- pb3_pull_up&#45;&gt;pb3_pull_up -->
<g id="edge10" class="edge"><title>pb3_pull_up&#45;&gt;pb3_pull_up</title>
<path fill="none" stroke="black" d="M2368.9,-308.695C2370.18,-319.885 2374.55,-328 2382,-328 2387.01,-328 2390.62,-324.337 2392.84,-318.539"/>
<polygon fill="black" stroke="black" points="2396.28,-319.224 2395.1,-308.695 2389.45,-317.659 2396.28,-319.224"/>
<text text-anchor="middle" x="2382" y="-331.8" font-family="Times,serif" font-size="14.00">sustain 1ms</text>
</g>
<!-- spi_transfer -->
<g id="node16" class="node"><title>spi_transfer</title>
<ellipse fill="none" stroke="black" cx="2544" cy="-257" rx="70.0071" ry="70.0071"/>
<text text-anchor="middle" x="2544" y="-260.8" font-family="Times,serif" font-size="14.00">SPI transfer fw</text>
<text text-anchor="middle" x="2544" y="-245.8" font-family="Times,serif" font-size="14.00"> to isp RAM</text>
</g>
<!-- pb3_pull_up&#45;&gt;spi_transfer -->
<g id="edge33" class="edge"><title>pb3_pull_up&#45;&gt;spi_transfer</title>
<path fill="none" stroke="black" d="M2435.39,-257C2444.52,-257 2454.2,-257 2463.86,-257"/>
<polygon fill="black" stroke="black" points="2463.9,-260.5 2473.9,-257 2463.9,-253.5 2463.9,-260.5"/>
</g>
<!-- power_up -->
<g id="node12" class="node"><title>power_up</title>
<ellipse fill="none" stroke="black" cx="840" cy="-236" rx="44.393" ry="44.393"/>
<text text-anchor="middle" x="840" y="-232.3" font-family="Times,serif" font-size="14.00">power up</text>
</g>
<!-- power_down&#45;&gt;power_up -->
<g id="edge34" class="edge"><title>power_down&#45;&gt;power_up</title>
<path fill="none" stroke="black" d="M3610.16,-289.531C3584.8,-329.1 3542.1,-379 3488,-379 993,-379 993,-379 993,-379 936.173,-379 891.923,-325.323 866.17,-283.741"/>
<polygon fill="black" stroke="black" points="869.111,-281.84 860.957,-275.075 863.112,-285.449 869.111,-281.84"/>
<text text-anchor="middle" x="2225" y="-382.8" font-family="Times,serif" font-size="14.00">fw checksum != 0</text>
</g>
<!-- release_kernel_buf -->
<g id="node20" class="node"><title>release_kernel_buf</title>
<ellipse fill="none" stroke="black" cx="3933" cy="-205" rx="54.3945" ry="54.3945"/>
<text text-anchor="middle" x="3933" y="-208.8" font-family="Times,serif" font-size="14.00">Release fw</text>
<text text-anchor="middle" x="3933" y="-193.8" font-family="Times,serif" font-size="14.00"> kernel buf</text>
</g>
<!-- power_down&#45;&gt;release_kernel_buf -->
<g id="edge22" class="edge"><title>power_down&#45;&gt;release_kernel_buf</title>
<path fill="none" stroke="black" d="M3691.24,-235.3C3741.14,-229.02 3815.78,-219.626 3868.71,-212.965"/>
<polygon fill="black" stroke="black" points="3869.17,-216.434 3878.66,-211.713 3868.3,-209.489 3869.17,-216.434"/>
<text text-anchor="middle" x="3785" y="-281.8" font-family="Times,serif" font-size="14.00">1. firmware checksum=0</text>
<text text-anchor="middle" x="3785" y="-266.8" font-family="Times,serif" font-size="14.00"> 2. flash write fail time &gt; 3</text>
<text text-anchor="middle" x="3785" y="-251.8" font-family="Times,serif" font-size="14.00"> 3. flash erase fail time &gt; 3</text>
<text text-anchor="middle" x="3785" y="-236.8" font-family="Times,serif" font-size="14.00"> 4. checksum!=0 times &gt; 3</text>
</g>
<!-- power_up&#45;&gt;set_flash_erase_addr -->
<g id="edge32" class="edge"><title>power_up&#45;&gt;set_flash_erase_addr</title>
<path fill="none" stroke="black" d="M884.557,-236C893.347,-236 902.849,-236 912.449,-236"/>
<polygon fill="black" stroke="black" points="912.462,-239.5 922.462,-236 912.462,-232.5 912.462,-239.5"/>
</g>
<!-- flash_write -->
<g id="node13" class="node"><title>flash_write</title>
<ellipse fill="none" stroke="black" cx="3242" cy="-263" rx="48.1917" ry="48.1917"/>
<text text-anchor="middle" x="3242" y="-259.3" font-family="Times,serif" font-size="14.00">flash write</text>
</g>
<!-- flash_write&#45;&gt;power_down -->
<g id="edge19" class="edge"><title>flash_write&#45;&gt;power_down</title>
<path fill="none" stroke="black" d="M3286.61,-281.353C3346.05,-303.7 3455.29,-335.178 3544,-307 3559.29,-302.144 3574.23,-293.725 3587.47,-284.527"/>
<polygon fill="black" stroke="black" points="3589.87,-287.105 3595.91,-278.399 3585.76,-281.44 3589.87,-287.105"/>
<text text-anchor="middle" x="3487" y="-322.8" font-family="Times,serif" font-size="14.00">flash write fail</text>
</g>
<!-- flash_write&#45;&gt;flash_write -->
<g id="edge18" class="edge"><title>flash_write&#45;&gt;flash_write</title>
<path fill="none" stroke="black" d="M3229.84,-309.564C3230.79,-320.728 3234.85,-329 3242,-329 3246.81,-329 3250.21,-325.266 3252.22,-319.429"/>
<polygon fill="black" stroke="black" points="3255.66,-320.051 3254.16,-309.564 3248.8,-318.702 3255.66,-320.051"/>
<text text-anchor="middle" x="3242" y="-332.8" font-family="Times,serif" font-size="14.00">wait for write complete</text>
</g>
<!-- fw_checksum -->
<g id="node14" class="node"><title>fw_checksum</title>
<ellipse fill="none" stroke="black" cx="3487" cy="-242" rx="56.6372" ry="56.6372"/>
<text text-anchor="middle" x="3487" y="-253.3" font-family="Times,serif" font-size="14.00">firmware</text>
<text text-anchor="middle" x="3487" y="-238.3" font-family="Times,serif" font-size="14.00"> checksum</text>
<text text-anchor="middle" x="3487" y="-223.3" font-family="Times,serif" font-size="14.00"> calculation</text>
</g>
<!-- flash_write&#45;&gt;fw_checksum -->
<g id="edge12" class="edge"><title>flash_write&#45;&gt;fw_checksum</title>
<path fill="none" stroke="black" d="M3290.14,-258.926C3327.17,-255.726 3379.16,-251.233 3420.28,-247.68"/>
<polygon fill="black" stroke="black" points="3420.82,-251.146 3430.48,-246.798 3420.21,-244.172 3420.82,-251.146"/>
<text text-anchor="middle" x="3360" y="-261.8" font-family="Times,serif" font-size="14.00">flash write success</text>
</g>
<!-- fw_checksum&#45;&gt;power_down -->
<g id="edge20" class="edge"><title>fw_checksum&#45;&gt;power_down</title>
<path fill="none" stroke="black" d="M3543.95,-242C3552.99,-242 3562.42,-242 3571.64,-242"/>
<polygon fill="black" stroke="black" points="3571.93,-245.5 3581.93,-242 3571.93,-238.5 3571.93,-245.5"/>
</g>
<!-- pb3_pull_down -->
<g id="node15" class="node"><title>pb3_pull_down</title>
<ellipse fill="none" stroke="black" cx="2716" cy="-254" rx="63.8893" ry="63.8893"/>
<text text-anchor="middle" x="2716" y="-250.3" font-family="Times,serif" font-size="14.00">PB3 pull down</text>
</g>
<!-- pb3_pull_down&#45;&gt;pb3_pull_down -->
<g id="edge13" class="edge"><title>pb3_pull_down&#45;&gt;pb3_pull_down</title>
<path fill="none" stroke="black" d="M2701.47,-315.804C2703.31,-327.087 2708.15,-335 2716,-335 2721.27,-335 2725.19,-331.428 2727.75,-325.661"/>
<polygon fill="black" stroke="black" points="2731.18,-326.378 2730.53,-315.804 2724.45,-324.478 2731.18,-326.378"/>
<text text-anchor="middle" x="2716" y="-338.8" font-family="Times,serif" font-size="14.00">sustain 1ms</text>
</g>
<!-- set_flash_write_addr -->
<g id="node17" class="node"><title>set_flash_write_addr</title>
<ellipse fill="none" stroke="black" cx="2890" cy="-258" rx="71.3357" ry="71.3357"/>
<text text-anchor="middle" x="2890" y="-261.8" font-family="Times,serif" font-size="14.00">set flash</text>
<text text-anchor="middle" x="2890" y="-246.8" font-family="Times,serif" font-size="14.00"> write addr to 0</text>
</g>
<!-- pb3_pull_down&#45;&gt;set_flash_write_addr -->
<g id="edge15" class="edge"><title>pb3_pull_down&#45;&gt;set_flash_write_addr</title>
<path fill="none" stroke="black" d="M2780.07,-255.467C2789.22,-255.68 2798.75,-255.901 2808.19,-256.121"/>
<polygon fill="black" stroke="black" points="2808.31,-259.624 2818.39,-256.358 2808.47,-252.626 2808.31,-259.624"/>
</g>
<!-- spi_transfer&#45;&gt;pb3_pull_down -->
<g id="edge14" class="edge"><title>spi_transfer&#45;&gt;pb3_pull_down</title>
<path fill="none" stroke="black" d="M2614.15,-255.78C2623.39,-255.617 2632.9,-255.449 2642.21,-255.285"/>
<polygon fill="black" stroke="black" points="2642.27,-258.784 2652.21,-255.108 2642.15,-251.785 2642.27,-258.784"/>
</g>
<!-- set_flash_write_size -->
<g id="node18" class="node"><title>set_flash_write_size</title>
<ellipse fill="none" stroke="black" cx="3078" cy="-263" rx="77.5641" ry="77.5641"/>
<text text-anchor="middle" x="3078" y="-266.8" font-family="Times,serif" font-size="14.00">set flash</text>
<text text-anchor="middle" x="3078" y="-251.8" font-family="Times,serif" font-size="14.00"> write size to 2M</text>
</g>
<!-- set_flash_write_addr&#45;&gt;set_flash_write_size -->
<g id="edge16" class="edge"><title>set_flash_write_addr&#45;&gt;set_flash_write_size</title>
<path fill="none" stroke="black" d="M2961.58,-259.897C2970.79,-260.145 2980.31,-260.401 2989.75,-260.655"/>
<polygon fill="black" stroke="black" points="2989.85,-264.159 2999.94,-260.929 2990.04,-257.161 2989.85,-264.159"/>
</g>
<!-- set_flash_write_size&#45;&gt;flash_write -->
<g id="edge17" class="edge"><title>set_flash_write_size&#45;&gt;flash_write</title>
<path fill="none" stroke="black" d="M3156.2,-263C3165.34,-263 3174.54,-263 3183.34,-263"/>
<polygon fill="black" stroke="black" points="3183.46,-266.5 3193.46,-263 3183.46,-259.5 3183.46,-266.5"/>
</g>
<!-- cp_usr_to_kernel&#45;&gt;power_up -->
<g id="edge21" class="edge"><title>cp_usr_to_kernel&#45;&gt;power_up</title>
<path fill="none" stroke="black" d="M757.741,-228.236C767.096,-229.13 776.505,-230.029 785.433,-230.882"/>
<polygon fill="black" stroke="black" points="785.373,-234.392 795.661,-231.859 786.039,-227.424 785.373,-234.392"/>
</g>
<!-- release_kernel_buf&#45;&gt;release_user_buf -->
<g id="edge23" class="edge"><title>release_kernel_buf&#45;&gt;release_user_buf</title>
<path fill="none" stroke="black" d="M3979,-175.722C3993.98,-165.97 4010.83,-155.01 4026.4,-144.877"/>
<polygon fill="black" stroke="black" points="4028.43,-147.733 4034.9,-139.345 4024.61,-141.865 4028.43,-147.733"/>
</g>
<!-- end -->
<g id="node25" class="node"><title>end</title>
<polygon fill="none" stroke="black" points="4210,-72 4174,-72 4174,-36 4210,-36 4210,-72"/>
<polyline fill="none" stroke="black" points="4186,-72 4174,-60 "/>
<polyline fill="none" stroke="black" points="4174,-48 4186,-36 "/>
<polyline fill="none" stroke="black" points="4198,-36 4210,-48 "/>
<polyline fill="none" stroke="black" points="4210,-60 4198,-72 "/>
<text text-anchor="middle" x="4192" y="-50.3" font-family="Times,serif" font-size="14.00">end</text>
</g>
<!-- release_user_buf&#45;&gt;end -->
<g id="edge28" class="edge"><title>release_user_buf&#45;&gt;end</title>
<path fill="none" stroke="black" d="M4129.81,-85.4376C4141.81,-79.2726 4154.25,-72.8819 4164.75,-67.4854"/>
<polygon fill="black" stroke="black" points="4166.49,-70.5269 4173.79,-62.8439 4163.29,-64.3006 4166.49,-70.5269"/>
</g>
<!-- alloc_fw_user_buffer -->
<g id="node22" class="node"><title>alloc_fw_user_buffer</title>
<ellipse fill="none" stroke="black" cx="169" cy="-56" rx="56.6372" ry="56.6372"/>
<text text-anchor="middle" x="169" y="-59.8" font-family="Times,serif" font-size="14.00">alloc fw</text>
<text text-anchor="middle" x="169" y="-44.8" font-family="Times,serif" font-size="14.00"> user buffer</text>
</g>
<!-- read_fw_file -->
<g id="node23" class="node"><title>read_fw_file</title>
<ellipse fill="none" stroke="black" cx="331" cy="-121" rx="66.4361" ry="66.4361"/>
<text text-anchor="middle" x="331" y="-124.8" font-family="Times,serif" font-size="14.00">read fw file</text>
<text text-anchor="middle" x="331" y="-109.8" font-family="Times,serif" font-size="14.00"> to user buffer</text>
</g>
<!-- alloc_fw_user_buffer&#45;&gt;read_fw_file -->
<g id="edge24" class="edge"><title>alloc_fw_user_buffer&#45;&gt;read_fw_file</title>
<path fill="none" stroke="black" d="M221.947,-77.1036C233.945,-81.9777 246.907,-87.2433 259.546,-92.3779"/>
<polygon fill="black" stroke="black" points="258.545,-95.749 269.127,-96.2702 261.179,-89.2637 258.545,-95.749"/>
</g>
<!-- alloc_fw_user_buffer&#45;&gt;end -->
<g id="edge31" class="edge"><title>alloc_fw_user_buffer&#45;&gt;end</title>
<path fill="none" stroke="black" d="M223.626,-41.3301C254.49,-34.1372 294.147,-27 330,-27 330,-27 330,-27 4082,-27 4110.78,-27 4142.61,-35.978 4164.41,-43.5798"/>
<polygon fill="black" stroke="black" points="4163.36,-46.9235 4173.96,-47.0468 4165.75,-40.3438 4163.36,-46.9235"/>
<text text-anchor="middle" x="2092" y="-30.8" font-family="Times,serif" font-size="14.00">Alloc user buf fail</text>
</g>
<!-- read_fw_file&#45;&gt;alloc_kernel_buf -->
<g id="edge25" class="edge"><title>read_fw_file&#45;&gt;alloc_kernel_buf</title>
<path fill="none" stroke="black" d="M396.473,-134.816C406.781,-137.024 417.504,-139.322 427.974,-141.566"/>
<polygon fill="black" stroke="black" points="427.401,-145.023 437.913,-143.696 428.868,-138.178 427.401,-145.023"/>
</g>
<!-- read_fw_file&#45;&gt;release_user_buf -->
<g id="edge29" class="edge"><title>read_fw_file&#45;&gt;release_user_buf</title>
<path fill="none" stroke="black" d="M390.685,-91.1964C422.252,-77.8227 462.338,-65 500,-65 500,-65 500,-65 3934,-65 3963.88,-65 3995.74,-73.7157 4022.05,-83.4757"/>
<polygon fill="black" stroke="black" points="4020.88,-86.7783 4031.47,-87.1045 4023.4,-80.2456 4020.88,-86.7783"/>
<text text-anchor="middle" x="2092" y="-68.8" font-family="Times,serif" font-size="14.00">Open fw file fail</text>
</g>
<!-- start -->
<g id="node24" class="node"><title>start</title>
<polygon fill="none" stroke="black" points="37,-74 0.465943,-56 37,-38 73.5341,-56 37,-74"/>
<polyline fill="none" stroke="black" points="11.2304,-61.3035 11.2304,-50.6965 "/>
<polyline fill="none" stroke="black" points="26.2356,-43.3035 47.7644,-43.3035 "/>
<polyline fill="none" stroke="black" points="62.7696,-50.6965 62.7696,-61.3035 "/>
<polyline fill="none" stroke="black" points="47.7644,-68.6965 26.2356,-68.6965 "/>
<text text-anchor="middle" x="37" y="-52.3" font-family="Times,serif" font-size="14.00">start</text>
</g>
<!-- start&#45;&gt;alloc_fw_user_buffer -->
<g id="edge27" class="edge"><title>start&#45;&gt;alloc_fw_user_buffer</title>
<path fill="none" stroke="black" d="M73.8672,-56C82.6803,-56 92.3942,-56 102.134,-56"/>
<polygon fill="black" stroke="black" points="102.257,-59.5001 112.257,-56 102.257,-52.5001 102.257,-59.5001"/>
</g>
</g>
</svg>
