<?xml version="1.0" encoding="UTF-8" standalone="no"?>
<!DOCTYPE svg PUBLIC "-//W3C//DTD SVG 1.1//EN"
 "http://www.w3.org/Graphics/SVG/1.1/DTD/svg11.dtd">
<!-- Generated by graphviz version 2.36.0 (20140111.2315)
 -->
<!-- Title: G Pages: 1 -->
<svg width="998pt" height="644pt"
 viewBox="0.00 0.00 998.00 644.00" xmlns="http://www.w3.org/2000/svg" xmlns:xlink="http://www.w3.org/1999/xlink">
<g id="graph0" class="graph" transform="scale(1 1) rotate(0) translate(4 640)">
<title>G</title>
<polygon fill="white" stroke="none" points="-4,4 -4,-640 994,-640 994,4 -4,4"/>
<text text-anchor="start" x="492" y="-616" font-family="Times,serif" font-size="20.00"> </text>
<!-- Snapdragon -->
<g id="node1" class="node"><title>Snapdragon</title>
<ellipse fill="none" stroke="black" cx="457" cy="-553" rx="52.4675" ry="52.7911"/>
<text text-anchor="middle" x="457" y="-549.3" font-family="Times,serif" font-size="14.00">Snapdragon</text>
</g>
<!-- Snapdragon_S3 -->
<g id="node2" class="node"><title>Snapdragon_S3</title>
<ellipse fill="none" stroke="black" cx="355" cy="-406" rx="56.9149" ry="57.0522"/>
<text text-anchor="middle" x="355" y="-409.8" font-family="Times,serif" font-size="14.00">Snapdragon</text>
<text text-anchor="middle" x="355" y="-394.8" font-family="Times,serif" font-size="14.00"> S3</text>
</g>
<!-- Snapdragon&#45;&gt;Snapdragon_S3 -->
<g id="edge1" class="edge"><title>Snapdragon&#45;&gt;Snapdragon_S3</title>
<path fill="none" stroke="black" d="M427.223,-509.67C416.608,-494.579 404.499,-477.366 393.27,-461.403"/>
<polygon fill="black" stroke="black" points="396.107,-459.352 387.49,-453.187 390.381,-463.38 396.107,-459.352"/>
</g>
<!-- Snapdragon_8xx -->
<g id="node7" class="node"><title>Snapdragon_8xx</title>
<ellipse fill="none" stroke="black" cx="559" cy="-406" rx="56.9149" ry="57.0522"/>
<text text-anchor="middle" x="559" y="-409.8" font-family="Times,serif" font-size="14.00">Snapdragon</text>
<text text-anchor="middle" x="559" y="-394.8" font-family="Times,serif" font-size="14.00"> 8xx</text>
</g>
<!-- Snapdragon&#45;&gt;Snapdragon_8xx -->
<g id="edge3" class="edge"><title>Snapdragon&#45;&gt;Snapdragon_8xx</title>
<path fill="none" stroke="black" d="M486.777,-509.67C497.392,-494.579 509.501,-477.366 520.73,-461.403"/>
<polygon fill="black" stroke="black" points="523.619,-463.38 526.51,-453.187 517.893,-459.352 523.619,-463.38"/>
</g>
<!-- MSM8660 -->
<g id="node3" class="node"><title>MSM8660</title>
<ellipse fill="none" stroke="black" cx="213" cy="-254" rx="50.0684" ry="50.0912"/>
<text text-anchor="middle" x="213" y="-250.3" font-family="Times,serif" font-size="14.00">MSM8660</text>
</g>
<!-- Snapdragon_S3&#45;&gt;MSM8660 -->
<g id="edge2" class="edge"><title>Snapdragon_S3&#45;&gt;MSM8660</title>
<path fill="none" stroke="black" d="M315.822,-363.615C296.593,-343.303 273.438,-318.843 253.974,-298.282"/>
<polygon fill="black" stroke="black" points="256.4,-295.754 246.984,-290.898 251.317,-300.566 256.4,-295.754"/>
</g>
<!-- Snapdragon_800 -->
<g id="node4" class="node"><title>Snapdragon_800</title>
<ellipse fill="none" stroke="black" cx="338" cy="-254" rx="56.9149" ry="57.0522"/>
<text text-anchor="middle" x="338" y="-257.8" font-family="Times,serif" font-size="14.00">Snapdragon</text>
<text text-anchor="middle" x="338" y="-242.8" font-family="Times,serif" font-size="14.00"> 800</text>
</g>
<!-- __8074AA -->
<g id="node8" class="node"><title>__8074AA</title>
<ellipse fill="none" stroke="black" cx="44" cy="-116" rx="44.2946" ry="44.393"/>
<text text-anchor="middle" x="44" y="-112.3" font-family="Times,serif" font-size="14.00">8074&#45;AA</text>
</g>
<!-- Snapdragon_800&#45;&gt;__8074AA -->
<g id="edge10" class="edge"><title>Snapdragon_800&#45;&gt;__8074AA</title>
<path fill="none" stroke="black" d="M286.453,-229.155C231.923,-203.93 146.52,-164.424 92.9824,-139.659"/>
<polygon fill="black" stroke="black" points="94.2427,-136.385 83.6973,-135.363 91.3038,-142.738 94.2427,-136.385"/>
</g>
<!-- __8274AA -->
<g id="node12" class="node"><title>__8274AA</title>
<polygon fill="none" stroke="black" points="169,-134 106.746,-116 169,-98 231.254,-116 169,-134"/>
<text text-anchor="middle" x="169" y="-112.3" font-family="Times,serif" font-size="14.00">8274&#45;AA</text>
</g>
<!-- Snapdragon_800&#45;&gt;__8274AA -->
<g id="edge11" class="edge"><title>Snapdragon_800&#45;&gt;__8274AA</title>
<path fill="none" stroke="black" d="M293.597,-217.268C261.299,-191.276 218.827,-157.097 192.744,-136.107"/>
<polygon fill="black" stroke="black" points="194.87,-133.326 184.885,-129.783 190.481,-138.779 194.87,-133.326"/>
</g>
<!-- __8674AA -->
<g id="node13" class="node"><title>__8674AA</title>
<polygon fill="none" stroke="black" points="318,-134 250,-134 250,-98 318,-98 318,-134"/>
<text text-anchor="middle" x="284" y="-112.3" font-family="Times,serif" font-size="14.00">8674&#45;AA</text>
</g>
<!-- Snapdragon_800&#45;&gt;__8674AA -->
<g id="edge12" class="edge"><title>Snapdragon_800&#45;&gt;__8674AA</title>
<path fill="none" stroke="black" d="M317.122,-200.419C309.405,-180.982 300.983,-159.772 294.563,-143.602"/>
<polygon fill="black" stroke="black" points="297.791,-142.25 290.848,-134.247 291.286,-144.833 297.791,-142.25"/>
</g>
<!-- __8974AA -->
<g id="node17" class="node"><title>__8974AA</title>
<polygon fill="none" stroke="black" points="445.444,-121.562 391,-134 336.556,-121.562 357.352,-101.438 424.648,-101.438 445.444,-121.562"/>
<text text-anchor="middle" x="391" y="-112.3" font-family="Times,serif" font-size="14.00">8974&#45;AA</text>
</g>
<!-- Snapdragon_800&#45;&gt;__8974AA -->
<g id="edge14" class="edge"><title>Snapdragon_800&#45;&gt;__8974AA</title>
<path fill="none" stroke="black" d="M358.491,-200.419C366.307,-180.363 374.859,-158.419 381.229,-142.073"/>
<polygon fill="black" stroke="black" points="384.517,-143.274 384.887,-132.686 377.995,-140.733 384.517,-143.274"/>
</g>
<!-- Snapdragon_801 -->
<g id="node5" class="node"><title>Snapdragon_801</title>
<ellipse fill="none" stroke="black" cx="630" cy="-254" rx="56.9149" ry="57.0522"/>
<text text-anchor="middle" x="630" y="-257.8" font-family="Times,serif" font-size="14.00">Snapdragon</text>
<text text-anchor="middle" x="630" y="-242.8" font-family="Times,serif" font-size="14.00"> 801</text>
</g>
<!-- __8074AB -->
<g id="node9" class="node"><title>__8074AB</title>
<ellipse fill="none" stroke="black" cx="507" cy="-116" rx="43.319" ry="43.5923"/>
<text text-anchor="middle" x="507" y="-112.3" font-family="Times,serif" font-size="14.00">8074&#45;AB</text>
</g>
<!-- Snapdragon_801&#45;&gt;__8074AB -->
<g id="edge7" class="edge"><title>Snapdragon_801&#45;&gt;__8074AB</title>
<path fill="none" stroke="black" d="M592.092,-211.086C576.422,-193.759 558.343,-173.77 542.891,-156.684"/>
<polygon fill="black" stroke="black" points="545.297,-154.127 535.994,-149.058 540.105,-158.822 545.297,-154.127"/>
</g>
<!-- __8274AB -->
<g id="node10" class="node"><title>__8274AB</title>
<polygon fill="none" stroke="black" points="630,-134 568.625,-116 630,-98 691.375,-116 630,-134"/>
<text text-anchor="middle" x="630" y="-112.3" font-family="Times,serif" font-size="14.00">8274&#45;AB</text>
<text text-anchor="start" x="568.416" y="-137" font-family="Times,serif" font-size="10.00" fill="red">Smartisan T1 P1~P2</text>
</g>
<!-- Snapdragon_801&#45;&gt;__8274AB -->
<g id="edge8" class="edge"><title>Snapdragon_801&#45;&gt;__8274AB</title>
<path fill="none" stroke="black" d="M630,-196.505C630,-178.418 630,-159.211 630,-144.208"/>
<polygon fill="black" stroke="black" points="633.5,-144.102 630,-134.102 626.5,-144.102 633.5,-144.102"/>
</g>
<!-- __8674AB -->
<g id="node14" class="node"><title>__8674AB</title>
<polygon fill="none" stroke="black" points="776.25,-134 709.75,-134 709.75,-98 776.25,-98 776.25,-134"/>
<text text-anchor="middle" x="743" y="-112.3" font-family="Times,serif" font-size="14.00">8674&#45;AB</text>
<text text-anchor="start" x="618.5" y="-90" font-family="Times,serif" font-size="10.00" fill="red">Smartisan T1 CDMA?</text>
</g>
<!-- Snapdragon_801&#45;&gt;__8674AB -->
<g id="edge13" class="edge"><title>Snapdragon_801&#45;&gt;__8674AB</title>
<path fill="none" stroke="black" d="M666.376,-209.22C684.81,-187.034 706.532,-160.891 722.131,-142.116"/>
<polygon fill="black" stroke="black" points="724.925,-144.23 728.624,-134.302 719.541,-139.757 724.925,-144.23"/>
</g>
<!-- __8974AB -->
<g id="node16" class="node"><title>__8974AB</title>
<polygon fill="none" stroke="black" points="901.241,-121.562 848,-134 794.759,-121.562 815.095,-101.438 880.905,-101.438 901.241,-121.562"/>
<text text-anchor="middle" x="848" y="-112.3" font-family="Times,serif" font-size="14.00">8974&#45;AB</text>
</g>
<!-- Snapdragon_801&#45;&gt;__8974AB -->
<g id="edge9" class="edge"><title>Snapdragon_801&#45;&gt;__8974AB</title>
<path fill="none" stroke="black" d="M678.111,-222.986C721.458,-195.944 783.721,-157.101 819.594,-134.721"/>
<polygon fill="black" stroke="black" points="821.486,-137.666 828.118,-129.403 817.781,-131.727 821.486,-137.666"/>
</g>
<!-- Snapdragon_810 -->
<g id="node6" class="node"><title>Snapdragon_810</title>
<ellipse fill="none" stroke="black" cx="859" cy="-254" rx="56.9149" ry="57.0522"/>
<text text-anchor="middle" x="859" y="-257.8" font-family="Times,serif" font-size="14.00">Snapdragon</text>
<text text-anchor="middle" x="859" y="-242.8" font-family="Times,serif" font-size="14.00"> 810</text>
</g>
<!-- __8994 -->
<g id="node18" class="node"><title>__8994</title>
<polygon fill="none" stroke="black" points="990.024,-121.562 955,-134 919.976,-121.562 933.354,-101.438 976.646,-101.438 990.024,-121.562"/>
<text text-anchor="middle" x="955" y="-112.3" font-family="Times,serif" font-size="14.00">8994</text>
<text text-anchor="start" x="865.652" y="-137" font-family="Times,serif" font-size="10.00" fill="red">Smartisan T2</text>
</g>
<!-- Snapdragon_810&#45;&gt;__8994 -->
<g id="edge17" class="edge"><title>Snapdragon_810&#45;&gt;__8994</title>
<path fill="none" stroke="black" d="M891.769,-206.577C907.92,-183.696 926.638,-157.18 939.493,-138.968"/>
<polygon fill="black" stroke="black" points="942.389,-140.935 945.297,-130.746 936.67,-136.898 942.389,-140.935"/>
</g>
<!-- Snapdragon_8xx&#45;&gt;Snapdragon_800 -->
<g id="edge4" class="edge"><title>Snapdragon_8xx&#45;&gt;Snapdragon_800</title>
<path fill="none" stroke="black" d="M512.132,-373.189C477.528,-349.702 430.295,-317.644 393.752,-292.841"/>
<polygon fill="black" stroke="black" points="395.421,-289.744 385.181,-287.024 391.49,-295.535 395.421,-289.744"/>
</g>
<!-- Snapdragon_8xx&#45;&gt;Snapdragon_801 -->
<g id="edge5" class="edge"><title>Snapdragon_8xx&#45;&gt;Snapdragon_801</title>
<path fill="none" stroke="black" d="M583.236,-353.798C589.119,-341.368 595.463,-327.966 601.522,-315.164"/>
<polygon fill="black" stroke="black" points="604.759,-316.507 605.874,-305.971 598.432,-313.512 604.759,-316.507"/>
</g>
<!-- Snapdragon_8xx&#45;&gt;Snapdragon_810 -->
<g id="edge6" class="edge"><title>Snapdragon_8xx&#45;&gt;Snapdragon_810</title>
<path fill="none" stroke="black" d="M609.891,-379.555C662.227,-353.386 743.7,-312.65 799.108,-284.946"/>
<polygon fill="black" stroke="black" points="800.731,-288.047 808.11,-280.445 797.601,-281.786 800.731,-288.047"/>
</g>
<!-- __8274AC -->
<g id="node11" class="node"><title>__8274AC</title>
<polygon fill="none" stroke="black" points="630,-36 568.625,-18 630,-3.55271e-15 691.375,-18 630,-36"/>
<text text-anchor="middle" x="630" y="-14.3" font-family="Times,serif" font-size="14.00">8274&#45;AC</text>
<text text-anchor="start" x="471.416" y="-39" font-family="Times,serif" font-size="10.00" fill="red">Smartisan T1 WCDMA</text>
</g>
<!-- __8274AB&#45;&gt;__8274AC -->
<g id="edge16" class="edge"><title>__8274AB&#45;&gt;__8274AC</title>
<path fill="none" stroke="black" d="M630,-97.8371C630,-83.5031 630,-62.8066 630,-46.2158"/>
<polygon fill="black" stroke="black" points="633.5,-46.0143 630,-36.0143 626.5,-46.0143 633.5,-46.0143"/>
</g>
<!-- __8974AC -->
<g id="node15" class="node"><title>__8974AC</title>
<polygon fill="none" stroke="black" points="901.241,-23.5623 848,-36 794.759,-23.5623 815.095,-3.43769 880.905,-3.43769 901.241,-23.5623"/>
<text text-anchor="middle" x="848" y="-14.3" font-family="Times,serif" font-size="14.00">8974&#45;AC</text>
<text text-anchor="start" x="720.174" y="-39" font-family="Times,serif" font-size="10.00" fill="red">Smartisan T1 LTE</text>
</g>
<!-- __8974AB&#45;&gt;__8974AC -->
<g id="edge15" class="edge"><title>__8974AB&#45;&gt;__8974AC</title>
<path fill="none" stroke="black" d="M848,-101.246C848,-87.0103 848,-64.3903 848,-46.4724"/>
<polygon fill="black" stroke="black" points="851.5,-46.3032 848,-36.3032 844.5,-46.3033 851.5,-46.3032"/>
</g>
</g>
</svg>
