<?xml version="1.0" encoding="UTF-8" standalone="no"?>
<!DOCTYPE svg PUBLIC "-//W3C//DTD SVG 1.1//EN"
 "http://www.w3.org/Graphics/SVG/1.1/DTD/svg11.dtd">
<!-- Generated by graphviz version 2.36.0 (20140111.2315)
 -->
<!-- Title: G Pages: 1 -->
<svg width="998pt" height="502pt"
 viewBox="0.00 0.00 998.00 502.00" xmlns="http://www.w3.org/2000/svg" xmlns:xlink="http://www.w3.org/1999/xlink">
<g id="graph0" class="graph" transform="scale(1 1) rotate(0) translate(4 498)">
<title>G</title>
<polygon fill="white" stroke="none" points="-4,4 -4,-498 994,-498 994,4 -4,4"/>
<text text-anchor="start" x="400.5" y="-474" font-family="Times,serif" font-size="20.00">Qualcomm Snapdragon</text>
<!-- Snapdragon_800 -->
<g id="node1" class="node"><title>Snapdragon_800</title>
<ellipse fill="none" stroke="black" cx="284" cy="-254" rx="56.9149" ry="57.0522"/>
<text text-anchor="middle" x="284" y="-257.8" font-family="Times,serif" font-size="14.00">Snapdragon</text>
<text text-anchor="middle" x="284" y="-242.8" font-family="Times,serif" font-size="14.00"> 800</text>
</g>
<!-- __8074AA -->
<g id="node5" class="node"><title>__8074AA</title>
<ellipse fill="none" stroke="black" cx="44" cy="-116" rx="44.2946" ry="44.393"/>
<text text-anchor="middle" x="44" y="-112.3" font-family="Times,serif" font-size="14.00">8074&#45;AA</text>
</g>
<!-- Snapdragon_800&#45;&gt;__8074AA -->
<g id="edge7" class="edge"><title>Snapdragon_800&#45;&gt;__8074AA</title>
<path fill="none" stroke="black" d="M231.541,-230.668C193.103,-213.419 140.304,-187.852 97,-160 93.0356,-157.45 89.0234,-154.655 85.0741,-151.751"/>
<polygon fill="black" stroke="black" points="87.1706,-148.948 77.0912,-145.684 82.9348,-154.521 87.1706,-148.948"/>
</g>
<!-- __8274AA -->
<g id="node9" class="node"><title>__8274AA</title>
<polygon fill="none" stroke="black" points="169,-134 106.746,-116 169,-98 231.254,-116 169,-134"/>
<text text-anchor="middle" x="169" y="-112.3" font-family="Times,serif" font-size="14.00">8274&#45;AA</text>
</g>
<!-- Snapdragon_800&#45;&gt;__8274AA -->
<g id="edge8" class="edge"><title>Snapdragon_800&#45;&gt;__8274AA</title>
<path fill="none" stroke="black" d="M247.297,-209.595C227.256,-185.894 203.32,-157.587 187.233,-138.563"/>
<polygon fill="black" stroke="black" points="189.775,-136.148 180.646,-130.772 184.43,-140.668 189.775,-136.148"/>
</g>
<!-- __8674AA -->
<g id="node10" class="node"><title>__8674AA</title>
<polygon fill="none" stroke="black" points="318,-134 250,-134 250,-98 318,-98 318,-134"/>
<text text-anchor="middle" x="284" y="-112.3" font-family="Times,serif" font-size="14.00">8674&#45;AA</text>
</g>
<!-- Snapdragon_800&#45;&gt;__8674AA -->
<g id="edge9" class="edge"><title>Snapdragon_800&#45;&gt;__8674AA</title>
<path fill="none" stroke="black" d="M284,-196.505C284,-178.418 284,-159.211 284,-144.208"/>
<polygon fill="black" stroke="black" points="287.5,-144.102 284,-134.102 280.5,-144.102 287.5,-144.102"/>
</g>
<!-- __8974AA -->
<g id="node14" class="node"><title>__8974AA</title>
<polygon fill="none" stroke="black" points="445.444,-121.562 391,-134 336.556,-121.562 357.352,-101.438 424.648,-101.438 445.444,-121.562"/>
<text text-anchor="middle" x="391" y="-112.3" font-family="Times,serif" font-size="14.00">8974&#45;AA</text>
</g>
<!-- Snapdragon_800&#45;&gt;__8974AA -->
<g id="edge11" class="edge"><title>Snapdragon_800&#45;&gt;__8974AA</title>
<path fill="none" stroke="black" d="M319.036,-208.469C337.218,-185.359 358.642,-158.128 373.359,-139.423"/>
<polygon fill="black" stroke="black" points="376.18,-141.497 379.612,-131.474 370.678,-137.169 376.18,-141.497"/>
</g>
<!-- Snapdragon_801 -->
<g id="node2" class="node"><title>Snapdragon_801</title>
<ellipse fill="none" stroke="black" cx="678" cy="-254" rx="56.9149" ry="57.0522"/>
<text text-anchor="middle" x="678" y="-257.8" font-family="Times,serif" font-size="14.00">Snapdragon</text>
<text text-anchor="middle" x="678" y="-242.8" font-family="Times,serif" font-size="14.00"> 801</text>
</g>
<!-- __8074AB -->
<g id="node6" class="node"><title>__8074AB</title>
<ellipse fill="none" stroke="black" cx="507" cy="-116" rx="43.319" ry="43.5923"/>
<text text-anchor="middle" x="507" y="-112.3" font-family="Times,serif" font-size="14.00">8074&#45;AB</text>
</g>
<!-- Snapdragon_801&#45;&gt;__8074AB -->
<g id="edge4" class="edge"><title>Snapdragon_801&#45;&gt;__8074AB</title>
<path fill="none" stroke="black" d="M633.128,-218.401C610.741,-201.021 583.318,-179.551 559,-160 555.314,-157.036 551.497,-153.938 547.682,-150.821"/>
<polygon fill="black" stroke="black" points="549.849,-148.071 539.898,-144.435 545.409,-153.483 549.849,-148.071"/>
</g>
<!-- __8274AB -->
<g id="node7" class="node"><title>__8274AB</title>
<polygon fill="none" stroke="black" points="630,-134 568.625,-116 630,-98 691.375,-116 630,-134"/>
<text text-anchor="middle" x="630" y="-112.3" font-family="Times,serif" font-size="14.00">8274&#45;AB</text>
<text text-anchor="start" x="568.416" y="-137" font-family="Times,serif" font-size="10.00" fill="red">Smartisan T1 P1~P2</text>
</g>
<!-- Snapdragon_801&#45;&gt;__8274AB -->
<g id="edge5" class="edge"><title>Snapdragon_801&#45;&gt;__8274AB</title>
<path fill="none" stroke="black" d="M659.167,-199.64C652.186,-179.861 644.593,-158.348 638.905,-142.231"/>
<polygon fill="black" stroke="black" points="642.096,-140.756 635.467,-132.491 635.495,-143.086 642.096,-140.756"/>
</g>
<!-- __8674AB -->
<g id="node11" class="node"><title>__8674AB</title>
<polygon fill="none" stroke="black" points="776.25,-134 709.75,-134 709.75,-98 776.25,-98 776.25,-134"/>
<text text-anchor="middle" x="743" y="-112.3" font-family="Times,serif" font-size="14.00">8674&#45;AB</text>
</g>
<!-- Snapdragon_801&#45;&gt;__8674AB -->
<g id="edge10" class="edge"><title>Snapdragon_801&#45;&gt;__8674AB</title>
<path fill="none" stroke="black" d="M702.389,-201.972C711.965,-181.936 722.544,-159.8 730.504,-143.145"/>
<polygon fill="black" stroke="black" points="733.706,-144.562 734.861,-134.03 727.391,-141.543 733.706,-144.562"/>
</g>
<!-- __8974AB -->
<g id="node13" class="node"><title>__8974AB</title>
<polygon fill="none" stroke="black" points="901.241,-121.562 848,-134 794.759,-121.562 815.095,-101.438 880.905,-101.438 901.241,-121.562"/>
<text text-anchor="middle" x="848" y="-112.3" font-family="Times,serif" font-size="14.00">8974&#45;AB</text>
</g>
<!-- Snapdragon_801&#45;&gt;__8974AB -->
<g id="edge6" class="edge"><title>Snapdragon_801&#45;&gt;__8974AB</title>
<path fill="none" stroke="black" d="M722.222,-217.623C754.535,-191.772 797.152,-157.679 823.554,-136.556"/>
<polygon fill="black" stroke="black" points="825.901,-139.161 831.523,-130.181 821.528,-133.695 825.901,-139.161"/>
</g>
<!-- Snapdragon_810 -->
<g id="node3" class="node"><title>Snapdragon_810</title>
<ellipse fill="none" stroke="black" cx="907" cy="-254" rx="56.9149" ry="57.0522"/>
<text text-anchor="middle" x="907" y="-257.8" font-family="Times,serif" font-size="14.00">Snapdragon</text>
<text text-anchor="middle" x="907" y="-242.8" font-family="Times,serif" font-size="14.00"> 810</text>
</g>
<!-- __8994 -->
<g id="node15" class="node"><title>__8994</title>
<polygon fill="none" stroke="black" points="990.024,-121.562 955,-134 919.976,-121.562 933.354,-101.438 976.646,-101.438 990.024,-121.562"/>
<text text-anchor="middle" x="955" y="-112.3" font-family="Times,serif" font-size="14.00">8994</text>
<text text-anchor="start" x="865.652" y="-137" font-family="Times,serif" font-size="10.00" fill="red">Smartisan T2</text>
</g>
<!-- Snapdragon_810&#45;&gt;__8994 -->
<g id="edge14" class="edge"><title>Snapdragon_810&#45;&gt;__8994</title>
<path fill="none" stroke="black" d="M925.833,-199.64C932.857,-179.739 940.5,-158.082 946.2,-141.933"/>
<polygon fill="black" stroke="black" points="949.611,-142.784 949.639,-132.19 943.01,-140.455 949.611,-142.784"/>
</g>
<!-- Snapdragon_8yyyy -->
<g id="node4" class="node"><title>Snapdragon_8yyyy</title>
<ellipse fill="none" stroke="black" cx="678" cy="-406" rx="56.9149" ry="57.0522"/>
<text text-anchor="middle" x="678" y="-409.8" font-family="Times,serif" font-size="14.00">Snapdragon</text>
<text text-anchor="middle" x="678" y="-394.8" font-family="Times,serif" font-size="14.00"> 8yyyy</text>
</g>
<!-- Snapdragon_8yyyy&#45;&gt;Snapdragon_800 -->
<g id="edge1" class="edge"><title>Snapdragon_8yyyy&#45;&gt;Snapdragon_800</title>
<path fill="none" stroke="black" d="M624.863,-384.77C552.649,-357.278 423.727,-308.195 346.812,-278.913"/>
<polygon fill="black" stroke="black" points="347.828,-275.555 337.237,-275.268 345.338,-282.097 347.828,-275.555"/>
</g>
<!-- Snapdragon_8yyyy&#45;&gt;Snapdragon_801 -->
<g id="edge2" class="edge"><title>Snapdragon_8yyyy&#45;&gt;Snapdragon_801</title>
<path fill="none" stroke="black" d="M678,-348.719C678,-339.9 678,-330.713 678,-321.688"/>
<polygon fill="black" stroke="black" points="681.5,-321.597 678,-311.597 674.5,-321.597 681.5,-321.597"/>
</g>
<!-- Snapdragon_8yyyy&#45;&gt;Snapdragon_810 -->
<g id="edge3" class="edge"><title>Snapdragon_8yyyy&#45;&gt;Snapdragon_810</title>
<path fill="none" stroke="black" d="M725.449,-373.92C761.988,-349.986 812.592,-316.839 851.095,-291.619"/>
<polygon fill="black" stroke="black" points="853.164,-294.448 859.612,-286.04 849.329,-288.592 853.164,-294.448"/>
</g>
<!-- __8274AC -->
<g id="node8" class="node"><title>__8274AC</title>
<polygon fill="none" stroke="black" points="630,-36 568.625,-18 630,-3.55271e-15 691.375,-18 630,-36"/>
<text text-anchor="middle" x="630" y="-14.3" font-family="Times,serif" font-size="14.00">8274&#45;AC</text>
<text text-anchor="start" x="471.416" y="-39" font-family="Times,serif" font-size="10.00" fill="red">Smartisan T1 WCDMA</text>
</g>
<!-- __8274AB&#45;&gt;__8274AC -->
<g id="edge13" class="edge"><title>__8274AB&#45;&gt;__8274AC</title>
<path fill="none" stroke="black" d="M630,-97.8371C630,-83.5031 630,-62.8066 630,-46.2158"/>
<polygon fill="black" stroke="black" points="633.5,-46.0143 630,-36.0143 626.5,-46.0143 633.5,-46.0143"/>
</g>
<!-- __8974AC -->
<g id="node12" class="node"><title>__8974AC</title>
<polygon fill="none" stroke="black" points="901.241,-23.5623 848,-36 794.759,-23.5623 815.095,-3.43769 880.905,-3.43769 901.241,-23.5623"/>
<text text-anchor="middle" x="848" y="-14.3" font-family="Times,serif" font-size="14.00">8974&#45;AC</text>
<text text-anchor="start" x="720.174" y="-39" font-family="Times,serif" font-size="10.00" fill="red">Smartisan T1 LTE</text>
</g>
<!-- __8974AB&#45;&gt;__8974AC -->
<g id="edge12" class="edge"><title>__8974AB&#45;&gt;__8974AC</title>
<path fill="none" stroke="black" d="M848,-101.246C848,-87.0103 848,-64.3903 848,-46.4724"/>
<polygon fill="black" stroke="black" points="851.5,-46.3032 848,-36.3032 844.5,-46.3033 851.5,-46.3032"/>
</g>
</g>
</svg>
