<?xml version="1.0" encoding="UTF-8" standalone="no"?>
<!DOCTYPE svg PUBLIC "-//W3C//DTD SVG 1.1//EN"
 "http://www.w3.org/Graphics/SVG/1.1/DTD/svg11.dtd">
<!-- Generated by graphviz version 2.36.0 (20140111.2315)
 -->
<!-- Title: G Pages: 1 -->
<svg width="1306pt" height="610pt"
 viewBox="0.00 0.00 1306.00 609.60" xmlns="http://www.w3.org/2000/svg" xmlns:xlink="http://www.w3.org/1999/xlink">
<g id="graph0" class="graph" transform="scale(1 1) rotate(0) translate(4 605.6)">
<title>G</title>
<polygon fill="white" stroke="none" points="-4,4 -4,-605.6 1302,-605.6 1302,4 -4,4"/>
<text text-anchor="start" x="530" y="-581.6" font-family="Times,serif" font-size="20.00">vfe stats stream state machine</text>
<!-- STATS_INACTIVE -->
<g id="node1" class="node"><title>STATS_INACTIVE</title>
<ellipse fill="none" stroke="black" cx="83" cy="-294.6" rx="83.3857" ry="83.3857"/>
<text text-anchor="middle" x="83" y="-290.9" font-family="Times,serif" font-size="14.00">STATS_INACTIVE</text>
</g>
<!-- STATS_START_PENDING -->
<g id="node2" class="node"><title>STATS_START_PENDING</title>
<ellipse fill="none" stroke="black" cx="373" cy="-459.6" rx="112.38" ry="112.38"/>
<text text-anchor="middle" x="373" y="-455.9" font-family="Times,serif" font-size="14.00">STATS_START_PENDING</text>
</g>
<!-- STATS_INACTIVE&#45;&gt;STATS_START_PENDING -->
<g id="edge1" class="edge"><title>STATS_INACTIVE&#45;&gt;STATS_START_PENDING</title>
<path fill="none" stroke="black" d="M155.561,-335.598C188.951,-354.728 229.368,-377.883 266.192,-398.981"/>
<polygon fill="black" stroke="black" points="264.557,-402.078 274.974,-404.012 268.037,-396.004 264.557,-402.078"/>
</g>
<!-- STATS_ACTIVE -->
<g id="node6" class="node"><title>STATS_ACTIVE</title>
<ellipse fill="none" stroke="black" cx="1224" cy="-279.6" rx="74.187" ry="74.187"/>
<text text-anchor="middle" x="1224" y="-275.9" font-family="Times,serif" font-size="14.00">STATS_ACTIVE</text>
</g>
<!-- STATS_INACTIVE&#45;&gt;STATS_ACTIVE -->
<g id="edge4" class="edge"><title>STATS_INACTIVE&#45;&gt;STATS_ACTIVE</title>
<path fill="none" stroke="black" d="M166.425,-297.396C320.421,-302.105 662.273,-310.125 950,-299.6 1013.8,-297.266 1085.82,-291.874 1139.86,-287.276"/>
<polygon fill="black" stroke="black" points="1140.42,-290.741 1150.08,-286.398 1139.82,-283.767 1140.42,-290.741"/>
<text text-anchor="middle" x="611" y="-308.4" font-family="Times,serif" font-size="14.00">pix0 is not active, activate it directly</text>
</g>
<!-- STATS_STARTING -->
<g id="node3" class="node"><title>STATS_STARTING</title>
<ellipse fill="none" stroke="black" cx="843" cy="-439.6" rx="85.2851" ry="85.2851"/>
<text text-anchor="middle" x="843" y="-435.9" font-family="Times,serif" font-size="14.00">STATS_STARTING</text>
</g>
<!-- STATS_START_PENDING&#45;&gt;STATS_STARTING -->
<g id="edge2" class="edge"><title>STATS_START_PENDING&#45;&gt;STATS_STARTING</title>
<path fill="none" stroke="black" d="M485.503,-454.834C565.455,-451.418 671.977,-446.865 747.705,-443.629"/>
<polygon fill="black" stroke="black" points="747.872,-447.125 757.713,-443.202 747.573,-440.132 747.872,-447.125"/>
<text text-anchor="middle" x="611" y="-457.4" font-family="Times,serif" font-size="14.00">reg update</text>
</g>
<!-- STATS_STARTING&#45;&gt;STATS_ACTIVE -->
<g id="edge3" class="edge"><title>STATS_STARTING&#45;&gt;STATS_ACTIVE</title>
<path fill="none" stroke="black" d="M924.448,-414.393C983.115,-394.96 1063.92,-365.991 1132,-333.6 1138.5,-330.506 1145.14,-327.095 1151.73,-323.535"/>
<polygon fill="black" stroke="black" points="1153.6,-326.501 1160.67,-318.604 1150.22,-320.372 1153.6,-326.501"/>
<text text-anchor="middle" x="1050" y="-402.4" font-family="Times,serif" font-size="14.00">another reg update, activate it</text>
</g>
<!-- STATS_STOP_PENDING -->
<g id="node4" class="node"><title>STATS_STOP_PENDING</title>
<ellipse fill="none" stroke="black" cx="843" cy="-184.6" rx="106.681" ry="106.681"/>
<text text-anchor="middle" x="843" y="-180.9" font-family="Times,serif" font-size="14.00">STATS_STOP_PENDING</text>
</g>
<!-- STATS_STOPPING -->
<g id="node5" class="node"><title>STATS_STOPPING</title>
<ellipse fill="none" stroke="black" cx="373" cy="-201.6" rx="83.6854" ry="83.6854"/>
<text text-anchor="middle" x="373" y="-197.9" font-family="Times,serif" font-size="14.00">STATS_STOPPING</text>
</g>
<!-- STATS_STOP_PENDING&#45;&gt;STATS_STOPPING -->
<g id="edge7" class="edge"><title>STATS_STOP_PENDING&#45;&gt;STATS_STOPPING</title>
<path fill="none" stroke="black" d="M736.117,-188.446C655.182,-191.386 544.685,-195.399 467.105,-198.217"/>
<polygon fill="black" stroke="black" points="466.727,-194.729 456.861,-198.59 466.981,-201.724 466.727,-194.729"/>
<text text-anchor="middle" x="611" y="-200.4" font-family="Times,serif" font-size="14.00">reg update</text>
</g>
<!-- STATS_STOPPING&#45;&gt;STATS_INACTIVE -->
<g id="edge8" class="edge"><title>STATS_STOPPING&#45;&gt;STATS_INACTIVE</title>
<path fill="none" stroke="black" d="M292.948,-227.127C255.46,-239.232 210.542,-253.737 171.977,-266.19"/>
<polygon fill="black" stroke="black" points="170.757,-262.906 162.317,-269.31 172.909,-269.567 170.757,-262.906"/>
<text text-anchor="middle" x="213" y="-266.4" font-family="Times,serif" font-size="14.00">reg update</text>
</g>
<!-- STATS_ACTIVE&#45;&gt;STATS_INACTIVE -->
<g id="edge5" class="edge"><title>STATS_ACTIVE&#45;&gt;STATS_INACTIVE</title>
<path fill="none" stroke="black" d="M1173.94,-224.931C1123.62,-173.314 1040.14,-99.3724 950,-68.5995 659.294,30.6488 536.811,24.5783 260,-108.6 210.07,-132.622 167.04,-177.34 136.027,-216.909"/>
<polygon fill="black" stroke="black" points="132.921,-215.207 129.593,-225.265 138.467,-219.477 132.921,-215.207"/>
<text text-anchor="middle" x="611" y="-19.3995" font-family="Times,serif" font-size="14.00">pix0 is not active, deactivate it directly</text>
</g>
<!-- STATS_ACTIVE&#45;&gt;STATS_STOP_PENDING -->
<g id="edge6" class="edge"><title>STATS_ACTIVE&#45;&gt;STATS_STOP_PENDING</title>
<path fill="none" stroke="black" d="M1151.85,-261.766C1096.92,-247.997 1019.87,-228.683 956.594,-212.822"/>
<polygon fill="black" stroke="black" points="957.114,-209.344 946.563,-210.308 955.412,-216.134 957.114,-209.344"/>
</g>
</g>
</svg>
